<?xml version="1.0" standalone="no"?>
<!DOCTYPE svg PUBLIC "-//W3C//DTD SVG 20010904//EN"
 "http://www.w3.org/TR/2001/REC-SVG-20010904/DTD/svg10.dtd">
<svg version="1.0" xmlns="http://www.w3.org/2000/svg"
 width="2816.000000pt" height="1536.000000pt" viewBox="0 0 2816.000000 1536.000000"
 preserveAspectRatio="xMidYMid meet">

<g transform="translate(0.000000,1536.000000) scale(0.100000,-0.100000)"
fill="#000000" stroke="none">
<path d="M13770 14180 c-159 -12 -506 -58 -615 -80 -460 -96 -755 -185 -1059
-320 -383 -169 -663 -329 -1030 -590 -27 -19 -115 -91 -195 -159 -504 -429
-911 -950 -1208 -1545 -143 -287 -213 -457 -292 -711 -108 -349 -172 -645
-216 -995 -28 -228 -35 -620 -35 -2200 0 -1636 3 -1752 45 -2085 52 -400 191
-910 357 -1310 99 -238 289 -580 476 -855 175 -258 314 -424 570 -684 461
-468 1006 -837 1602 -1086 396 -165 883 -296 1290 -345 442 -53 836 -54 1230
-4 194 25 559 98 716 143 159 46 424 138 554 191 141 58 420 192 555 267 115
64 377 236 518 340 380 280 803 711 1073 1093 190 268 281 421 428 720 228
463 390 999 452 1493 51 409 49 304 49 2247 0 1657 -2 1823 -18 1965 -80 711
-229 1233 -512 1801 -160 318 -263 489 -444 734 -305 413 -758 852 -1146 1112
-643 431 -1224 664 -1995 799 -319 56 -860 86 -1150 64z m680 -2245 c325 -43
683 -160 950 -310 401 -225 728 -532 995 -935 213 -322 364 -724 424 -1135 31
-208 32 -288 32 -1876 -1 -1862 2 -1798 -86 -2149 -96 -380 -261 -730 -481
-1021 -296 -391 -710 -716 -1141 -895 -389 -162 -802 -237 -1174 -214 -425 26
-724 103 -1088 282 -777 383 -1345 1125 -1516 1984 -57 289 -56 258 -53 2094
4 1676 4 1686 25 1795 95 485 184 730 390 1070 322 534 809 942 1380 1158 207
79 424 132 663 163 139 17 512 12 680 -11z"/>
<path d="M14510 9976 c-1479 -1473 -2470 -2462 -2470 -2469 0 -4 112 -7 249
-7 l249 0 758 755 c417 415 761 755 764 755 6 0 82 -76 724 -719 246 -247 447
-454 445 -460 -2 -6 -76 -83 -163 -171 l-159 -160 252 0 253 0 489 491 c269
269 496 501 505 514 12 19 13 31 4 64 -9 33 -44 72 -212 235 -111 108 -206
196 -210 196 -3 0 -28 -13 -55 -30 -110 -68 -290 -79 -428 -26 -86 33 -193
111 -245 180 -123 163 -144 391 -50 565 17 30 30 60 30 67 0 19 -388 411 -424
428 -19 9 -44 16 -57 16 -17 0 -86 -62 -249 -224z m518 -1150 c304 -305 557
-567 562 -582 6 -15 8 -34 5 -43 -3 -9 -46 -57 -96 -106 l-91 -90 -584 589
c-321 324 -584 595 -584 601 0 6 40 50 89 98 71 70 94 87 118 87 26 0 100 -71
581 -554z"/>
<path d="M11742 6815 l3 -340 33 -67 c36 -74 95 -133 170 -170 l47 -23 2090 0
2090 0 44 23 c66 36 137 108 168 171 l28 56 3 341 c3 322 2 342 -15 346 -10 2
-314 4 -676 3 -639 -1 -658 -1 -676 -20 -11 -11 -63 -104 -116 -206 -53 -103
-110 -200 -126 -215 l-30 -29 -672 -3 c-370 -2 -686 0 -704 3 -53 9 -90 61
-184 253 -61 124 -98 187 -116 199 -23 16 -82 17 -695 18 l-669 0 3 -340z"/>
</g>
</svg>
